<?xml version="1.0" encoding="utf-8"?>
<!-- Generator: $$$/GeneralStr/196=Adobe Illustrator 27.6.0, SVG Export Plug-In . SVG Version: 6.00 Build 0)  -->
<svg version="1.1" id="Ebene_1" xmlns="http://www.w3.org/2000/svg" xmlns:xlink="http://www.w3.org/1999/xlink" x="0px" y="0px"
	 width="205px" height="55px" viewBox="0 0 205 55" style="enable-background:new 0 0 205 55;" xml:space="preserve">
<style type="text/css">
	.st0{fill:#222C58;}
	.st1{fill:#E4067E;}
	.st2{filter:url(#Adobe_OpacityMaskFilter);}
	.st3{mask:url(#SVGID_1_);fill:#222C58;}
</style>
<path class="st0" d="M203.2,27.06c-4.42-7.24-10.13-15.57-19.95-15.57c-9.77,0-15.51,8.3-20.02,15.57
	c-0.49,0.79-1.98,3.74-1.98,3.74s1.29,2.92,1.77,3.79c4.05,7.24,10.26,15.62,20.18,15.62c10.06,0,15.95-8.47,20.13-15.71
	c0.63-1.09,1.66-3.69,1.66-3.69S203.66,27.82,203.2,27.06z M183.18,40.75c-9.88,0-17.89-4.43-17.89-9.89
	c0-5.46,8.01-9.89,17.89-9.89s17.89,4.43,17.89,9.89C201.07,36.32,193.06,40.75,183.18,40.75z"/>
<circle class="st1" cx="183.16" cy="30.84" r="7.98"/>
<path class="st0" d="M159.47,50.24V39.57h-15.56v-3.46h12.1V25.57h-12.1v-3.29h15.56V11.62h-28.93v38.62H159.47z M111.4,21.13
	c0.5,0.46,0.75,1.24,0.75,2.33c0,1.1-0.23,1.89-0.69,2.39c-0.46,0.5-1.27,0.75-2.42,0.75h-3v-6.17h2.94
	C110.09,20.44,110.9,20.67,111.4,21.13 M111.8,35.65c0.5,0.46,0.75,1.3,0.75,2.51c0,1.21-0.23,2.04-0.69,2.48
	c-0.46,0.44-1.36,0.66-2.71,0.66h-3.11v-6.34h3.11C110.42,34.96,111.3,35.19,111.8,35.65 M92.67,50.24h17.7
	c9.91,0,14.87-3.65,14.87-10.95c0-2.73-0.36-4.68-1.07-5.85c-0.71-1.17-2.01-2.16-3.89-2.97c1.61-1.15,2.68-2.38,3.2-3.69
	c0.52-1.31,0.78-3.17,0.78-5.59c0-6.38-4.71-9.57-14.12-9.57H92.67V50.24z M70.36,22.11l2.08,13.49h-5.71l2.19-13.49H70.36z
	 M64.08,50.24L65,45.8h8.82l1.1,4.44H88.4l-8.7-38.62H59.47l-8.53,38.62H64.08z"/>
<defs>
	<filter id="Adobe_OpacityMaskFilter" filterUnits="userSpaceOnUse" x="0" y="11.62" width="32.23" height="38.62">
		<feFlood  style="flood-color:white;flood-opacity:1" result="back"/>
		<feBlend  in="SourceGraphic" in2="back" mode="normal"/>
	</filter>
</defs>
<mask maskUnits="userSpaceOnUse" x="0" y="11.62" width="32.23" height="38.62" id="SVGID_1_">
	<g class="st2">
		<path d="M47.61,50.24H27.9c0,0-0.66-7.52-0.91-10.38c-0.34-5.1-0.67-10.2-1.01-15.31c-0.2-2.98-0.33-5.96-0.62-8.93
			c-0.25-2.6,0.5-3.91,3.46-4.3c3.83-0.51,4.41,1.11,4.82,3.33c1.05,5.68,1.68,9.23,2.71,14.91c0.39,2.12,0.27,1.77,0.72,3.88
			c0.09,0.41,0.43,1.81,1.36,1.87c0.73-0.05,1.83-0.44,2.48-3.26c2.53-8.19,3.06-10.28,5.52-18.35c0.33-1.09,0.65-2.19,0.98-3.28
			c0.41-1.32,1-2.44,2.31-2.82c1.61-0.46,2.22-0.17,5.16,1.01c1.5,0.6,1.86,2.31,1.45,3.99c-1.33,5.42-2.66,10.84-3.99,16.25
			C51.04,34.18,47.61,50.24,47.61,50.24"/>
	</g>
</mask>
<polygon class="st3" points="0,11.62 4.55,50.24 23.63,50.24 25.59,26.43 26.17,26.49 32.23,12.18 18.79,12.19 16.2,36.75 
	15.16,36.75 13.31,11.62 "/>
<path class="st1" d="M53.86,0.73c2.48,0.74,3.22,2.3,3.52,3.32c0.32,1.09,0,2.76-0.44,4.58c-0.39,1.6-1.86,6.32-3,9.9
	c-0.92,2.89-3.78,11.7-4.73,14.78c-0.95,3.07-2.18,6.91-3.42,10.7c-1.18,3.59-2.49,7.28-3.08,9.03c-0.47,1.38-0.81,1.77-2.02,1.43
	c-0.81-0.23-2.59-1.45-8.45-2.93c-6.31-1.59-8.08-1.16-9-1.34c-1.42-0.28-1.39-0.91-1.37-2.25c0.03-1.92,0.13-5.08,0.2-8.57
	c0.11-5.55,0.3-11.37,0.32-12.26c0.03-1.42,0.16-16.17,0.24-17.14c0.13-1.78-0.05-2.52,0.59-4.14c0.72-1.82,1.98-2.85,4.27-2.89
	c2.29-0.04,3.6,1.03,4.32,2.59c0.89,1.92,0.48,3.29,0.55,9.41c0.03,2.25,0.02,7.7,0.07,10.5c0.04,2.39,0.41,16.67,0.41,16.92
	c0,0.41,0.89,0.54,1.03,0.15c1.23-3.28,5.45-15.31,5.87-16.48c0.64-1.77,2.24-6.85,3.14-9.42c1.03-2.96,2.11-6.47,2.9-8.53
	c0.79-2.06,2.04-5.31,2.72-6.15C49.25,1.01,50.85-0.17,53.86,0.73z"/>
</svg>
